<?xml version="1.0" encoding="iso-8859-1"?>
<!-- Uploaded to: SVG Repo, www.svgrepo.com, Generator: SVG Repo Mixer Tools -->
<!DOCTYPE svg PUBLIC "-//W3C//DTD SVG 1.1//EN" "http://www.w3.org/Graphics/SVG/1.1/DTD/svg11.dtd">
<svg fill="#000000" version="1.1" id="Capa_1" xmlns="http://www.w3.org/2000/svg" xmlns:xlink="http://www.w3.org/1999/xlink" 
	 width="800px" height="800px" viewBox="0 0 279.992 279.992"
	 xml:space="preserve">
<g>
	<g>
		<path d="M264.739,80.949c-14.2-56.8-78.9-87.7-133.601-79.7c-62.6,9.1-120.7,51.7-120.1,119.5c0.5,56.1,51.2,102.5,104.8,107.7
			c-2.9,14.7,6.2,34.5,11.3,46.7c2.3,5.5,8.7,6.7,12.4,1.6c6.1-8.399,10.6-17.8,14.5-27.5c3.2-7.8,7.7-16.5,9-24.899
			c1,0.3,2,0.3,3.2,0.1C239.739,212.248,283.138,154.849,264.739,80.949z M162.239,210.648c-3.7,0.6-5.2,3.3-5.101,6.2
			c-1.7-0.101-3.399,0.399-4.6,1.8c-4.9,5.9-6.9,14.5-9.7,21.6c-2.4,6.101-5,12.101-8,17.801c-1.3-3.801-2.5-7.7-3.7-11.601
			c-2.2-7.5-2.1-15.3-3.9-22.8c-0.8-3.4-4.9-4.6-7.6-3c-43.9-14.7-80.1-38.6-92.3-85.8c-15.4-59,38.5-101.9,88.6-116.2
			c49.801-14.2,104.101,6.1,129.101,51.4C282.039,137.049,227.638,199.748,162.239,210.648z"/>
		<path d="M234.338,108.849c-9.6,0.1-19.3,1.1-28.8,2.8c-0.101-13.3-1.7-26.6-3.2-39.9c-0.4-3.1-2.4-5.8-5.8-5.8
			c-26.8-0.1-58.5-4.9-84.9,0.7c-13.4,2.8-19,10.5-20.8,23.9c-1.3,9.8,4.2,20.5-8.3,19.9c-7.3-0.3-13.6,0.7-19.7,4.7
			c-12.4,8.2-12.4,33.7-8.9,45.9c0.3,1.1,1.1,2.3,2.2,2.899c-0.9,2.5,1.2,5.9,4.7,5.4c9.4-1.5,19-1.601,28.8-0.9
			c0.9,3.101,2.6,6.101,4.5,8.4c3.7,4.5,9.6,7.8,15.6,7.2c6.8-0.7,11.4-5.4,14.5-11c12.9,2.199,25.8,4.6,38.5,6
			c2.199,8.5,9.8,14.8,19.3,12.699c6.8-1.5,14.7-6.1,17.2-12c0.199-0.3,0.399-0.6,0.6-0.899c6.6-1,13.2-2.7,19.5-5.3
			c1-0.4,1.8-1.2,2.3-2.101c18.2-7.3,18.7-40.3,18.7-56.3C240.539,111.648,237.638,108.849,234.338,108.849z M80.638,121.349
			c-1.2,4.6-2.6,8.4-6.4,11.9c-2.4,2.2-6.6,3.9-10,2.8c0.1-0.5,0.1-1.1,0.2-1.6C66.338,124.148,73.138,121.549,80.638,121.349z
			 M226.039,141.549c-1.7,8.699-7.3,15.1-9.9,23c-4.6,0.399-9.3,0.699-13.899,0.8c-1.2-4.2-4.101-7.7-7.9-10
			c-4-2.5-9.2-3.3-13.7-1.9c-0.5,0.2-0.899,0.4-1.3,0.601c-3.3-0.2-6.8,0.699-9.3,2.5c-2.5,1.899-4.3,4.199-5.5,6.8
			c-5.8-0.601-11.601-1.3-17.4-2c-0.3-10.601-0.3-21.3-0.6-31.9c-0.101-5.1-7.8-5.1-7.9,0c-0.3,10.1,0.1,21.1,2.3,31.2
			c-4.5-0.5-9-1.1-13.6-1.5c-0.6-3.3-2.5-6.3-6.2-8c-3.8-1.8-8-2.1-12.2-1.8c-0.1-1.4-1.4-2.8-3.1-2.601
			c-7.1,1.2-12.7,4.101-15.6,10.7c-9.1,0.3-18.2,1.3-27.3,3.2c0.4-6.8,0.1-13.7,0.7-20.5c10.6,6.3,23.7-7.1,25.2-18.4
			c2.5,0.3,4.8,0.6,7,0.7c3.1,0.2,5.6-2.8,5.7-5.7c0.1-10.4-0.4-21.2,2.1-31.4c2.9-11.6,25.5-8.1,33.6-7.8c16.5,0.5,33,0,49.5,0
			c8.899,0,7.8,30,8.1,35.6c0.2,3.1,2.4,4.8,4.8,5.1c0.5,1.3,1.7,2.2,3.101,2.6c0,7.2,2.199,14.1,8.399,18.3
			c4.101,2.7,10.2,3.2,15.101,1.4C226.138,140.948,226.138,141.248,226.039,141.549z M227.438,131.648c-4,0.8-7.5,2.6-11.699,1.4
			c-4.801-1.4-6.601-7.1-7.101-11.6c6.5,0.1,13,0,19.4-0.2C228.039,124.749,227.838,128.249,227.438,131.648z"/>
		<path d="M133.938,89.349c-0.8-1.3-2.3-2.3-3.9-2.2c-3.6,0.2-7.7,0.9-11.1,2.3c-3.9,1.7-2,8.7,2.2,8.2c2.1-0.3,4.2-0.7,6.3-1.1
			c1.8,3.7,2.8,7.9,1,11.8c-1.9,4-6.3,4.8-10.5,4.7c-0.1-5.9,0-11.8-0.7-17.7c-0.2-1.7-2.9-2.5-3.3-0.4c-0.6,3.1-2.2,5.8-2.7,9
			c-0.7,4.3-1.4,8.7-1.7,13.1c-0.1,1.8,1.4,3.7,3.1,4.1c8.7,1.9,17.5,0.3,22.9-7.3C140.738,106.349,138.038,96.249,133.938,89.349z"
			/>
		<path d="M179.739,92.049c-0.5-1.6-1.801-3.1-3.5-3.5c-9.2-2.3-18.4-3.7-27.301,0.4c-3.399,1.6-3.1,5-1.199,7.2
			c-1.101,6.2,0.699,12.5,0.8,18.8c0,1.5,0.8,3.4,2.3,4.1c6.5,2.8,16.9,3.4,23.5,0.6c4.5-1.9,4.9-8.5,5.5-12.8
			C180.739,101.949,181.138,96.849,179.739,92.049z M169.239,111.249c-3.601,1-8.7,0.8-12.5-0.2c-1.9-3.7-2.7-8.8-2.601-13.2
			c0,0,0,0,0.101,0c5.199-2.3,11-1.5,16.5-0.3C171.138,102.049,170.438,106.849,169.239,111.249z"/>
	</g>
</g>
</svg>